<svg width="17" height="17" viewBox="0 0 17 17" fill="none" xmlns="http://www.w3.org/2000/svg">
<path d="M1.5 6.32263V14C1.5 15.1046 2.39543 16 3.5 16H13.5C14.6046 16 15.5 15.1046 15.5 14V6.32263M1.5 6.32263V4.45166C1.5 3.34709 2.39543 2.45166 3.5 2.45166H13.5C14.6046 2.45166 15.5 3.34709 15.5 4.45166V6.32263M1.5 6.32263H15.5" stroke="white" stroke-width="1.5"/>
<path d="M11.5 1V3.90323" stroke="white" stroke-width="1.5" stroke-linecap="round"/>
<path d="M5.5 1V3.90323" stroke="white" stroke-width="1.5" stroke-linecap="round"/>
<rect x="4.5" y="12.129" width="2" height="1.93548" rx="0.967742" fill="white"/>
<rect x="4.5" y="8.25806" width="2" height="1.93548" rx="0.967742" fill="white"/>
<rect x="8.5" y="8.25806" width="2" height="1.93548" rx="0.967742" fill="white"/>
</svg>
